<svg width="512" height="512" viewBox="0 0 512 512" fill="none" xmlns="http://www.w3.org/2000/svg">
  <defs>
    <linearGradient id="bg" x1="56" y1="40" x2="430" y2="456" gradientUnits="userSpaceOnUse">
      <stop offset="0" stop-color="#07111F"/>
      <stop offset="0.52" stop-color="#1B66FF"/>
      <stop offset="1" stop-color="#5EEAD4"/>
    </linearGradient>
    <linearGradient id="panel" x1="154" y1="132" x2="346" y2="350" gradientUnits="userSpaceOnUse">
      <stop offset="0" stop-color="#FFFFFF"/>
      <stop offset="1" stop-color="#E9F3FF"/>
    </linearGradient>
    <linearGradient id="spark" x1="324" y1="124" x2="390" y2="196" gradientUnits="userSpaceOnUse">
      <stop offset="0" stop-color="#FFF6B3"/>
      <stop offset="1" stop-color="#FFE27A"/>
    </linearGradient>
  </defs>
  <rect x="36" y="36" width="440" height="440" rx="112" fill="url(#bg)"/>
  <rect x="56" y="56" width="400" height="400" rx="96" stroke="white" stroke-opacity="0.14" stroke-width="2"/>
  <path d="M142 164C142 149.641 153.641 138 168 138H300C335.346 138 364 166.654 364 202V278C364 313.346 335.346 342 300 342H245.865L186.185 387.608C176.903 394.702 163.5 388.083 163.5 376.4V342H168C153.641 342 142 330.359 142 316V164Z" fill="url(#panel)"/>
  <path d="M182 194H311" stroke="#0D1A33" stroke-width="18" stroke-linecap="round"/>
  <path d="M182 238H311" stroke="#0D1A33" stroke-width="18" stroke-linecap="round" opacity="0.86"/>
  <path d="M182 282H266" stroke="#1B66FF" stroke-width="18" stroke-linecap="round"/>
  <path d="M344 129L356.767 157.233L385 170L356.767 182.767L344 211L331.233 182.767L303 170L331.233 157.233L344 129Z" fill="url(#spark)"/>
  <circle cx="344" cy="170" r="49" stroke="white" stroke-opacity="0.18" stroke-width="10"/>
  <path d="M126 336C164.667 363.333 208.833 377 258.5 377C308.167 377 352 363.333 390 336" stroke="white" stroke-opacity="0.16" stroke-width="12" stroke-linecap="round"/>
</svg>
